HIERARCHY
ROOT Hips
{
	OFFSET 0 0 0
	CHANNELS 6 Xposition Yposition Zposition Yrotation Xrotation Zrotation
	JOINT Spine
	{
		OFFSET -0 7.69132 -2.45161
		CHANNELS 3 Yrotation Xrotation Zrotation
		JOINT Spine1
		{
			OFFSET -0 7.43975 0
			CHANNELS 3 Yrotation Xrotation Zrotation
			JOINT Spine2
			{
				OFFSET -0 7.43975 0
				CHANNELS 3 Yrotation Xrotation Zrotation
				JOINT Spine3
				{
					OFFSET -0 7.43975 0
					CHANNELS 3 Yrotation Xrotation Zrotation
					JOINT Neck
					{
						OFFSET -0 13.9329 3.45161
						CHANNELS 3 Yrotation Xrotation Zrotation
						JOINT Head
						{
							OFFSET -0 9.61415 0
							CHANNELS 3 Yrotation Xrotation Zrotation
							End Site
							{
								OFFSET 0 15 0
							}
						}
					}
					JOINT LeftShoulder
					{
						OFFSET 1.60236 2.19729 3.20472
						CHANNELS 3 Yrotation Xrotation Zrotation
						JOINT LeftArm
						{
							OFFSET 17.7845 0 0
							CHANNELS 3 Yrotation Xrotation Zrotation
							JOINT LeftForeArm
							{
								OFFSET 22.4513 0 0
								CHANNELS 3 Yrotation Xrotation Zrotation
								JOINT LeftHand
								{
									OFFSET 20.5515 0 0
									CHANNELS 3 Yrotation Xrotation Zrotation
									JOINT LeftHandThumb1
									{
										OFFSET 4.91385 0 2.72801
										CHANNELS 3 Yrotation Xrotation Zrotation
										JOINT LeftHandThumb2
										{
											OFFSET 3 0 1
											CHANNELS 3 Yrotation Xrotation Zrotation
											JOINT LeftHandThumb3
											{
												OFFSET 2.1 0 0
												CHANNELS 3 Yrotation Xrotation Zrotation
												JOINT LeftHandThumb4
												{
													OFFSET 1.305 0 0
													CHANNELS 3 Yrotation Xrotation Zrotation
													End Site
													{
														OFFSET -0 0 0
													}
												}
											}
										}
									}
									JOINT LeftHandIndex1
									{
										OFFSET 9.07627 0 3.52715
										CHANNELS 3 Yrotation Xrotation Zrotation
										JOINT LeftHandIndex2
										{
											OFFSET 3.5 0 0
											CHANNELS 3 Yrotation Xrotation Zrotation
											JOINT LeftHandIndex3
											{
												OFFSET 2.45 0 0
												CHANNELS 3 Yrotation Xrotation Zrotation
												JOINT LeftHandIndex4
												{
													OFFSET 1.5225 0 0
													CHANNELS 3 Yrotation Xrotation Zrotation
													End Site
													{
														OFFSET -0 0 0
													}
												}
											}
										}
									}
									JOINT LeftHandMiddle1
									{
										OFFSET 9.21121 0 1.12806
										CHANNELS 3 Yrotation Xrotation Zrotation
										JOINT LeftHandMiddle2
										{
											OFFSET 4.6 0 0
											CHANNELS 3 Yrotation Xrotation Zrotation
											JOINT LeftHandMiddle3
											{
												OFFSET 3.22 0 0
												CHANNELS 3 Yrotation Xrotation Zrotation
												JOINT LeftHandMiddle4
												{
													OFFSET 2.001 0 0
													CHANNELS 3 Yrotation Xrotation Zrotation
													End Site
													{
														OFFSET -0 0 0
													}
												}
											}
										}
									}
									JOINT LeftHandRing1
									{
										OFFSET 9.04616 0 -1.27103
										CHANNELS 3 Yrotation Xrotation Zrotation
										JOINT LeftHandRing2
										{
											OFFSET 3.75 0 0
											CHANNELS 3 Yrotation Xrotation Zrotation
											JOINT LeftHandRing3
											{
												OFFSET 2.625 0 0
												CHANNELS 3 Yrotation Xrotation Zrotation
												JOINT LeftHandRing4
												{
													OFFSET 1.63125 0 0
													CHANNELS 3 Yrotation Xrotation Zrotation
													End Site
													{
														OFFSET -0 0 0
													}
												}
											}
										}
									}
									JOINT LeftHandPinky1
									{
										OFFSET 8.58111 0 -3.67011
										CHANNELS 3 Yrotation Xrotation Zrotation
										JOINT LeftHandPinky2
										{
											OFFSET 2.875 0 0
											CHANNELS 3 Yrotation Xrotation Zrotation
											JOINT LeftHandPinky3
											{
												OFFSET 2.0125 0 0
												CHANNELS 3 Yrotation Xrotation Zrotation
												JOINT LeftHandPinky4
												{
													OFFSET 1.25062 0 0
													CHANNELS 3 Yrotation Xrotation Zrotation
													End Site
													{
														OFFSET -0 0 0
													}
												}
											}
										}
									}
								}
							}
						}
					}
					JOINT RightShoulder
					{
						OFFSET -1.60236 2.19729 3.20472
						CHANNELS 3 Yrotation Xrotation Zrotation
						JOINT RightArm
						{
							OFFSET -17.7845 0 0
							CHANNELS 3 Yrotation Xrotation Zrotation
							JOINT RightForeArm
							{
								OFFSET -22.4513 0 0
								CHANNELS 3 Yrotation Xrotation Zrotation
								JOINT RightHand
								{
									OFFSET -20.5515 0 0
									CHANNELS 3 Yrotation Xrotation Zrotation
									JOINT RightHandThumb1
									{
										OFFSET -4.4694 0 0.364316
										CHANNELS 3 Yrotation Xrotation Zrotation
										JOINT RightHandThumb2
										{
											OFFSET -3 0 1
											CHANNELS 3 Yrotation Xrotation Zrotation
											JOINT RightHandThumb3
											{
												OFFSET -2.1 0 0
												CHANNELS 3 Yrotation Xrotation Zrotation
												JOINT RightHandThumb4
												{
													OFFSET -1.305 0 0
													CHANNELS 3 Yrotation Xrotation Zrotation
													End Site
													{
														OFFSET -0 0 0
													}
												}
											}
										}
									}
									JOINT RightHandIndex1
									{
										OFFSET -7.92682 0 1.55071
										CHANNELS 3 Yrotation Xrotation Zrotation
										JOINT RightHandIndex2
										{
											OFFSET -3.5 0 0
											CHANNELS 3 Yrotation Xrotation Zrotation
											JOINT RightHandIndex3
											{
												OFFSET -2.45 0 0
												CHANNELS 3 Yrotation Xrotation Zrotation
												JOINT RightHandIndex4
												{
													OFFSET -1.5225 0 0
													CHANNELS 3 Yrotation Xrotation Zrotation
													End Site
													{
														OFFSET -0 0 0
													}
												}
											}
										}
									}
									JOINT RightHandMiddle1
									{
										OFFSET -8.23226 0 0.386205
										CHANNELS 3 Yrotation Xrotation Zrotation
										JOINT RightHandMiddle2
										{
											OFFSET -4.6 0 0
											CHANNELS 3 Yrotation Xrotation Zrotation
											JOINT RightHandMiddle3
											{
												OFFSET -3.22 0 0
												CHANNELS 3 Yrotation Xrotation Zrotation
												JOINT RightHandMiddle4
												{
													OFFSET -2.001 0 0
													CHANNELS 3 Yrotation Xrotation Zrotation
													End Site
													{
														OFFSET -0 0 0
													}
												}
											}
										}
									}
									JOINT RightHandRing1
									{
										OFFSET -8.23771 0 -0.778302
										CHANNELS 3 Yrotation Xrotation Zrotation
										JOINT RightHandRing2
										{
											OFFSET -3.75 0 0
											CHANNELS 3 Yrotation Xrotation Zrotation
											JOINT RightHandRing3
											{
												OFFSET -2.625 0 0
												CHANNELS 3 Yrotation Xrotation Zrotation
												JOINT RightHandRing4
												{
													OFFSET -1.63125 0 0
													CHANNELS 3 Yrotation Xrotation Zrotation
													End Site
													{
														OFFSET -0 0 0
													}
												}
											}
										}
									}
									JOINT RightHandPinky1
									{
										OFFSET -7.94315 0 -1.94281
										CHANNELS 3 Yrotation Xrotation Zrotation
										JOINT RightHandPinky2
										{
											OFFSET -2.875 0 0
											CHANNELS 3 Yrotation Xrotation Zrotation
											JOINT RightHandPinky3
											{
												OFFSET -2.0125 0 0
												CHANNELS 3 Yrotation Xrotation Zrotation
												JOINT RightHandPinky4
												{
													OFFSET -1.25062 0 0
													CHANNELS 3 Yrotation Xrotation Zrotation
													End Site
													{
														OFFSET -0 0 0
													}
												}
											}
										}
									}
								}
							}
						}
					}
				}
			}
		}
	}
	JOINT LeftUpLeg
	{
		OFFSET 9.61415 -3.20472 3
		CHANNELS 3 Yrotation Xrotation Zrotation
		JOINT LeftLeg
		{
			OFFSET -0 -42.2921 2.2433
			CHANNELS 3 Yrotation Xrotation Zrotation
			JOINT LeftFoot
			{
				OFFSET -0 -34.6503 -2.2433
				CHANNELS 3 Yrotation Xrotation Zrotation
				JOINT LeftToeBase
				{
					OFFSET -0 -8.30332 8.5187
					CHANNELS 3 Yrotation Xrotation Zrotation
					End Site
					{
						OFFSET 0 0 5
					}
				}
			}
		}
	}
	JOINT RightUpLeg
	{
		OFFSET -9.61415 -3.20472 3
		CHANNELS 3 Yrotation Xrotation Zrotation
		JOINT RightLeg
		{
			OFFSET -0 -42.2921 2.2433
			CHANNELS 3 Yrotation Xrotation Zrotation
			JOINT RightFoot
			{
				OFFSET -0 -34.6503 -2.2433
				CHANNELS 3 Yrotation Xrotation Zrotation
				JOINT RightToeBase
				{
					OFFSET -0 -8.30332 8.5187
					CHANNELS 3 Yrotation Xrotation Zrotation
					End Site
					{
						OFFSET 0 0 5
					}
				}
			}
		}
	}
}
MOTION
Frames: 5
Frame Time: 0.0047619
0 89.415849 0 0 0 0 0 0 0 0 0 0 0 0 0 0 0 0 0 0 0 0 0 0 0 0 0 0 0 0 0 0 0 0 0 0 0 0 0 0 0 0 0 0 0 0 0 0 0 0 0 0 0 0 0 0 0 0 0 0 0 0 0 0 0 0 0 0 0 0 0 0 0 0 0 0 0 0 0 0 0 0 0 0 0 0 0 0 0 0 0 0 0 0 0 0 0 0 0 0 0 0 0 0 0 0 0 0 0 0 0 0 0 0 0 0 0 0 0 0 0 0 0 0 0 0 0 0 0 0 0 0 0 0 0 0 0 0 0 0 0 0 0 0 0 0 0 0 0 0 0 0 0 0 0 0 0 0 0 0 0 0 0 0 0 0 0 0 0 0 0 0 0 0 0 0 0 0 0 0 0 0 0 0 0 0 0 0 0 0 0 0
-28.415146 89.087140 10.174858 -0.651955 -0.110436 -0.942142 0.041072 0.507935 1.644400 0.070835 0.487347 1.085482 -0.186729 0.509752 0.522066 -0.253284 0.497529 0.069454 1.060551 -0.246420 -3.003873 0.331007 -3.351738 1.070235 12.676829 1.946784 9.587157 -16.410475 3.358265 -0.544969 -6.392800 -3.148395 0.270329 5.063436 2.285191 -37.634774 20.446230 -4.631967 -1.366194 23.535391 -5.274177 -1.711737 -37.633018 -5.672674 -2.185391 0.000009 -0.000001 3.888668 0.000009 -0.000001 3.888668 0.000009 -0.000002 3.110930 -0.000003 -0.000000 1.555468 0.000010 -0.000001 0.432594 0.000010 -0.000001 0.432594 -0.000000 -0.000000 0.346073 0.000000 -0.000001 0.173038 0.000015 -0.000001 5.092843 0.000015 -0.000001 5.092843 -0.000014 -0.000000 4.074273 0.000007 0.000000 2.037134 0.000010 -0.000002 11.030096 0.000010 -0.000002 11.030096 -0.000014 -0.000001 8.824077 -0.000005 -0.000001 4.412039 -162.743518 -0.031537 -179.792165 -4.635288 1.823177 -14.026561 9.045887 -0.483557 1.408369 8.496525 -1.466612 -0.379278 -56.591669 0.024119 -14.402206 4.427534 -0.260126 -5.117630 5.093352 -0.264977 -5.886823 -60.333046 11.211313 7.470056 0.000003 0.000000 -12.499999 0.000003 0.000000 -12.499999 0.000000 0.000001 -9.999999 -0.000002 0.000000 -5.000002 -0.000000 0.000001 -3.826754 -0.000000 0.000001 -3.826754 -0.000008 -0.000000 -3.061404 0.000006 0.000000 -1.530698 -0.000001 -0.000003 4.967976 -0.000001 -0.000003 4.967976 -0.000003 -0.000002 3.974384 0.000002 -0.000002 1.987191 -0.000001 0.000001 31.129958 -0.000001 0.000001 31.129958 0.000001 -0.000002 24.903974 -0.000004 -0.000001 12.451976 20.446230 -4.631967 -1.366194 9.650744 6.411114 6.861506 0.000000 -2.532922 0.000000 1.028320 0.274421 -0.531455 0.000000 -8.520622 0.000000 -9.453810 7.119520 -2.915254 0.000000 -1.810596 0.000000 -1.558809 0.460569 -0.521457 0.000000 -7.265880 0.000000
-28.415445 89.085968 10.182081 -0.646488 -0.107454 -0.941207 0.040238 0.514969 1.641998 0.069247 0.484213 1.084239 -0.189560 0.499363 0.521863 -0.255718 0.488837 0.075238 1.051931 -0.235911 -2.996983 0.327743 -3.357294 1.063515 12.682354 1.954838 9.581500 -16.399864 3.395270 -0.538950 -6.407396 -3.147690 0.262622 5.071902 2.240947 -37.631120 20.446230 -4.631967 -1.366194 23.535391 -5.274177 -1.711737 -37.633018 -5.672674 -2.185391 0.000009 -0.000001 3.888668 0.000009 -0.000001 3.888668 0.000009 -0.000002 3.110930 -0.000003 -0.000000 1.555468 0.000010 -0.000001 0.432594 0.000010 -0.000001 0.432594 -0.000000 -0.000000 0.346073 0.000000 -0.000001 0.173038 0.000015 -0.000001 5.092843 0.000015 -0.000001 5.092843 -0.000014 -0.000000 4.074273 0.000007 0.000000 2.037134 0.000010 -0.000002 11.030096 0.000010 -0.000002 11.030096 -0.000014 -0.000001 8.824077 -0.000005 -0.000001 4.412039 -162.743518 -0.031537 -179.792165 -4.628284 1.829053 -14.025725 9.046020 -0.478023 1.412967 8.490206 -1.523941 -0.376090 -56.587882 0.048418 -14.458515 4.427534 -0.260126 -5.117630 5.093352 -0.264977 -5.886823 -60.333046 11.211313 7.470056 0.000003 0.000000 -12.499999 0.000003 0.000000 -12.499999 0.000000 0.000001 -9.999999 -0.000002 0.000000 -5.000002 -0.000000 0.000001 -3.826754 -0.000000 0.000001 -3.826754 -0.000008 -0.000000 -3.061404 0.000006 0.000000 -1.530698 -0.000001 -0.000003 4.967976 -0.000001 -0.000003 4.967976 -0.000003 -0.000002 3.974384 0.000002 -0.000002 1.987191 -0.000001 0.000001 31.129958 -0.000001 0.000001 31.129958 0.000001 -0.000002 24.903974 -0.000004 -0.000001 12.451976 20.446230 -4.631967 -1.366194 9.675212 6.407861 6.862209 0.000000 -2.535898 0.000000 1.029956 0.299058 -0.499702 0.000000 -8.561798 0.000000 -9.438872 7.124225 -2.913244 0.000000 -1.804834 0.000000 -1.566728 0.419685 -0.533656 0.000000 -7.221211 0.000000
-28.413800 89.087561 10.191213 -0.647157 -0.107491 -0.925419 0.042685 0.488089 1.629706 0.074342 0.504688 1.077307 -0.190263 0.511112 0.516491 -0.256160 0.494462 0.090199 1.055930 -0.225437 -2.987886 0.328606 -3.409935 1.047477 12.691533 1.948011 9.581791 -16.424107 3.404378 -0.563572 -6.393020 -3.139356 0.279201 5.070061 2.212256 -37.636352 20.446230 -4.631967 -1.366194 23.535391 -5.274177 -1.711737 -37.633018 -5.672674 -2.185391 0.000009 -0.000001 3.888668 0.000009 -0.000001 3.888668 0.000009 -0.000002 3.110930 -0.000003 -0.000000 1.555468 0.000010 -0.000001 0.432594 0.000010 -0.000001 0.432594 -0.000000 -0.000000 0.346073 0.000000 -0.000001 0.173038 0.000015 -0.000001 5.092843 0.000015 -0.000001 5.092843 -0.000014 -0.000000 4.074273 0.000007 0.000000 2.037134 0.000010 -0.000002 11.030096 0.000010 -0.000002 11.030096 -0.000014 -0.000001 8.824077 -0.000005 -0.000001 4.412039 -162.743518 -0.031537 -179.792165 -4.648227 1.831201 -14.004556 9.063211 -0.463533 1.389963 8.499707 -1.590658 -0.382554 -56.603725 0.067932 -14.494976 4.427534 -0.260126 -5.117630 5.093352 -0.264977 -5.886823 -60.333046 11.211313 7.470056 0.000003 0.000000 -12.499999 0.000003 0.000000 -12.499999 0.000000 0.000001 -9.999999 -0.000002 0.000000 -5.000002 -0.000000 0.000001 -3.826754 -0.000000 0.000001 -3.826754 -0.000008 -0.000000 -3.061404 0.000006 0.000000 -1.530698 -0.000001 -0.000003 4.967976 -0.000001 -0.000003 4.967976 -0.000003 -0.000002 3.974384 0.000002 -0.000002 1.987191 -0.000001 0.000001 31.129958 -0.000001 0.000001 31.129958 0.000001 -0.000002 24.903974 -0.000004 -0.000001 12.451976 20.446230 -4.631967 -1.366194 9.682203 6.403822 6.846588 0.000000 -2.505532 0.000000 1.033307 0.291651 -0.511003 0.000000 -8.608011 0.000000 -9.434294 7.133016 -2.928212 0.000000 -1.822116 0.000000 -1.594683 0.427566 -0.549109 0.000000 -7.263661 0.000000
-28.414642 89.087506 10.197095 -0.629549 -0.103184 -0.942704 0.041795 0.492358 1.651678 0.071484 0.494405 1.083147 -0.191769 0.516731 0.497596 -0.258027 0.498845 0.066984 1.043467 -0.263694 -2.953852 0.323261 -3.378559 1.089925 12.696732 1.919707 9.608699 -16.450491 3.458680 -0.567769 -6.377445 -3.171992 0.297154 5.069261 2.192839 -37.656387 20.446230 -4.631967 -1.366194 23.535391 -5.274177 -1.711737 -37.633018 -5.672674 -2.185391 0.000009 -0.000001 3.888668 0.000009 -0.000001 3.888668 0.000009 -0.000002 3.110930 -0.000003 -0.000000 1.555468 0.000010 -0.000001 0.432594 0.000010 -0.000001 0.432594 -0.000000 -0.000000 0.346073 0.000000 -0.000001 0.173038 0.000015 -0.000001 5.092843 0.000015 -0.000001 5.092843 -0.000014 -0.000000 4.074273 0.000007 0.000000 2.037134 0.000010 -0.000002 11.030096 0.000010 -0.000002 11.030096 -0.000014 -0.000001 8.824077 -0.000005 -0.000001 4.412039 -162.743518 -0.031537 -179.792165 -4.629937 1.791944 -13.967803 9.032240 -0.461964 1.402495 8.520287 -1.615850 -0.368409 -56.612473 0.087679 -14.558216 4.427534 -0.260126 -5.117630 5.093352 -0.264977 -5.886823 -60.333046 11.211313 7.470056 0.000003 0.000000 -12.499999 0.000003 0.000000 -12.499999 0.000000 0.000001 -9.999999 -0.000002 0.000000 -5.000002 -0.000000 0.000001 -3.826754 -0.000000 0.000001 -3.826754 -0.000008 -0.000000 -3.061404 0.000006 0.000000 -1.530698 -0.000001 -0.000003 4.967976 -0.000001 -0.000003 4.967976 -0.000003 -0.000002 3.974384 0.000002 -0.000002 1.987191 -0.000001 0.000001 31.129958 -0.000001 0.000001 31.129958 0.000001 -0.000002 24.903974 -0.000004 -0.000001 12.451976 20.446230 -4.631967 -1.366194 9.680118 6.404855 6.864627 0.000000 -2.519833 0.000000 0.958285 0.275015 -0.517319 0.000000 -8.523683 0.000000 -9.425115 7.133345 -2.913082 0.000000 -1.806407 0.000000 -1.610444 0.426147 -0.502553 0.000000 -7.239665 0.000000
